<?xml version="1.0" encoding="utf-8"?>
<!-- Generator: Adobe Illustrator 19.2.1, SVG Export Plug-In . SVG Version: 6.00 Build 0)  -->
<svg version="1.1" id="Layer_1" xmlns="http://www.w3.org/2000/svg" xmlns:xlink="http://www.w3.org/1999/xlink" x="0px" y="0px"
	 viewBox="0 0 35.5 76.8" style="enable-background:new 0 0 35.5 76.8;" xml:space="preserve">
<g>
	<path d="M16.8,68.3v7.6h2v-7.6H24l11.5,8.5V53L29,50.5c0.4-3.8,0.6-7.9,0.6-12.1c0-20.2-10.5-36.4-11-37.1L17.8,0l-0.8,1.3
		C16.5,1.9,6,18.1,6,38.3c0,4.2,0.2,8.3,0.6,12.1L0,53v23.8l11.5-8.4L16.8,68.3L16.8,68.3z M33.5,54.4v18.4l-8-5.9
		C27,63,28,58.1,28.7,52.5L33.5,54.4z M17.8,3.7c1.1,1.9,3,5.5,4.9,10.3h-9.8C14.7,9.2,16.7,5.6,17.8,3.7z M12.1,16.1h11.3
		c2.2,6.1,4.1,13.9,4.1,22.3c0,11-1.4,21.1-3.9,28h-4.9v-16h-2v16h-4.9c-2.5-6.9-3.9-17-3.9-28C8,30,9.9,22.2,12.1,16.1z M2,54.4
		l4.8-1.9C7.5,58.1,8.6,63,10,66.9l-8,5.9V54.4z"/>
	<path d="M17.8,34.7c3.9,0,7-3.2,7-7s-3.2-7-7-7s-7,3.2-7,7S13.9,34.7,17.8,34.7z M17,22.7c0,0,0,0.1,0,0.1c0,0.6,0.4,1,1,1
		c2.1,0,3.8,1.7,3.8,3.8s-1.7,3.8-3.8,3.8c-0.6,0-1,0.4-1,1c0,0,0,0.1,0,0.1c-2.4-0.4-4.2-2.5-4.2-5S14.6,23.1,17,22.7z"/>
	<path d="M17.8,38.4c-2.8,0-5,2.3-5,5c0,2.8,2.3,5,5,5s5-2.3,5-5C22.8,40.7,20.6,38.4,17.8,38.4z M14.7,43.4c0-1.5,1.2-2.8,2.6-3
		c0,0,0,0.1,0,0.1c0,0.6,0.4,1,1,1c1.1,0,1.9,0.9,1.9,1.9s-0.9,1.9-1.9,1.9c-0.6,0-1,0.4-1,1c0,0,0,0.1,0,0.1
		C15.9,46.3,14.7,45,14.7,43.4z"/>
</g>
</svg>
